<?xml version="1.0" encoding="UTF-8"?>
<svg version="1.1" xmlns="http://www.w3.org/2000/svg" width="256" height="256">
<path d="M0 0 C1.28654473 2.57308945 0.99254102 4.24916306 0.875 7.125 C0.80041849 19.56519605 3.7494585 30.7790847 9 42 C12.80196811 50.21896046 16.31657599 58.36099446 18.875 67.0625 C19.07802734 67.75239014 19.28105469 68.44228027 19.49023438 69.15307617 C20.69313425 73.43034257 21.46249602 77.60276001 22 82 C26.05650489 62.31111043 22.00581842 42.18659652 15.734375 23.46875 C15 21 15 21 15 18 C40.06664228 42.03527775 57.27783199 81.83974886 58.30078125 116.5078125 C58.32021717 118.71345949 58.32375934 120.91929611 58.3125 123.125 C58.30686035 124.30006104 58.3012207 125.47512207 58.29541016 126.68579102 C58.15734198 136.69710086 57.26363459 146.24719498 55 156 C54.81727539 156.79390137 54.63455078 157.58780273 54.44628906 158.40576172 C50.1934403 176.03518161 42.41551764 193.58637212 30 207 C29.17757812 207.92683594 28.35515625 208.85367188 27.5078125 209.80859375 C25.35727148 212.22376521 23.18836449 214.61914049 21 217 C28.78668592 227.94345049 39.1636551 241.34205599 51 248 C51 248.66 51 249.32 51 250 C38.62904458 248.58072943 27.17630383 245.21755287 15.6875 240.5 C14.72328125 240.10554687 13.7590625 239.71109375 12.765625 239.3046875 C10 238 10 238 7.484375 236.2578125 C4.46981763 234.32516682 2.58367207 233.39866727 -1 233 C-6.91550593 234.66291598 -12.27753147 237.92562404 -17.66357422 240.8125 C-27.54525872 245.83491519 -40.84961877 250 -52 250 C-52 249.34 -52 248.68 -52 248 C-50.51586914 246.74926758 -50.51586914 246.74926758 -48.47265625 245.33203125 C-44.06363632 242.13032384 -40.25699166 238.56256956 -36.4375 234.6875 C-35.7870874 234.03322021 -35.1366748 233.37894043 -34.46655273 232.70483398 C-29.92662226 228.08276379 -25.70925216 223.32573559 -22 218 C-22.763125 217.13375 -23.52625 216.2675 -24.3125 215.375 C-25.54747111 213.92157881 -26.77554019 212.46228758 -28 211 C-28.8353125 210.00355469 -29.670625 209.00710937 -30.53125 207.98046875 C-53.79203548 179.65938401 -61.78153908 145.62115362 -58.78173828 109.36181641 C-58.19493311 104.48071116 -57.17592154 99.77115707 -56 95 C-55.7824707 94.03368652 -55.7824707 94.03368652 -55.56054688 93.04785156 C-51.28662046 74.31473254 -42.01467827 54.05875595 -30 39 C-29.34 39 -28.68 39 -28 39 C-28.2906156 40.91682632 -28.58256864 42.83344986 -28.875 44.75 C-29.13315163 46.44642499 -29.39125806 48.14285691 -29.64892578 49.83935547 C-29.91254361 51.46176002 -30.20169016 53.08004981 -30.50341797 54.69580078 C-37.19416951 91.43181394 -26.88778962 126.83559022 -6.1015625 157.0859375 C-4.14767655 159.95892957 -4.14767655 159.95892957 -2 162 C4.03108701 149.93782598 -1.17104518 126.75038194 -5.18359375 114.14453125 C-8.2106157 105.3197858 -12.36138408 97.03643253 -16.44726562 88.66625977 C-20.99458064 79.20168164 -24.28486651 69.54821902 -25 59 C-25.0515625 58.36707031 -25.103125 57.73414063 -25.15625 57.08203125 C-26.11383759 35.81560697 -15.83377908 16.45567042 -2 1 C-1.34 0.67 -0.68 0.34 0 0 Z " fill="#1A4D81" transform="translate(132,3)"/>
<path d="M0 0 C0.66 0 1.32 0 2 0 C1.7093844 1.91682632 1.41743136 3.83344986 1.125 5.75 C0.86684837 7.44642499 0.60874194 9.14285691 0.35107422 10.83935547 C0.08745639 12.46176002 -0.20169016 14.08004981 -0.50341797 15.69580078 C-7.19416951 52.43181394 3.11221038 87.83559022 23.8984375 118.0859375 C25.85232345 120.95892957 25.85232345 120.95892957 28 123 C29.47905238 120.04189524 29.12190903 117.0452845 29.09765625 113.8046875 C29.0962413 113.09724396 29.09482635 112.38980042 29.09336853 111.66091919 C29.087766 109.39890331 29.07521318 107.13698602 29.0625 104.875 C29.05748532 103.34244935 29.05292236 101.80989714 29.04882812 100.27734375 C29.03779577 96.51819112 29.02052952 92.75911228 29 89 C29.66 88.67 30.32 88.34 31 88 C30.67 90.31 30.34 92.62 30 95 C30.66 95 31.32 95 32 95 C32.05826088 99.3749437 32.09368457 103.74978698 32.125 108.125 C32.14175781 109.3625 32.15851563 110.6 32.17578125 111.875 C32.18544922 113.67324219 32.18544922 113.67324219 32.1953125 115.5078125 C32.21102295 117.15740967 32.21102295 117.15740967 32.22705078 118.84033203 C31.98512789 122.20696222 31.14875428 124.83845055 30 128 C29.64523236 129.54091795 29.32161997 131.08946638 29.03515625 132.64453125 C28.87466797 133.48693359 28.71417969 134.32933594 28.54882812 135.19726562 C28.22684617 136.92872684 27.90651001 138.66049498 27.58789062 140.39257812 C26.10990667 148.12402405 24.0287121 155.40142614 20.4375 162.4375 C20.02371094 163.26121094 19.60992187 164.08492187 19.18359375 164.93359375 C18 167 18 167 16 169 C15.31793936 170.6604263 14.65319777 172.3280087 14 174 C7.47928745 186.50491077 -3.10508293 196.16532595 -13 206 C-5.59431284 204.87091741 1.2099385 203.15763385 8.1875 200.4375 C9.09242187 200.08671387 9.99734375 199.73592773 10.9296875 199.37451172 C40.27047364 187.66820018 62.44706242 167.12713139 75 138 C77.78227033 131.13592508 80.00514667 124.12575986 82 117 C82.66 117.33 83.32 117.66 84 118 C81.2577595 136.13153047 72.24578618 154.38583999 60 168 C59.175 168.93199219 58.35 169.86398438 57.5 170.82421875 C55.35037202 173.23247384 53.184471 175.62337646 51 178 C58.78668592 188.94345049 69.1636551 202.34205599 81 209 C81 209.66 81 210.32 81 211 C68.62904458 209.58072943 57.17630383 206.21755287 45.6875 201.5 C44.72328125 201.10554687 43.7590625 200.71109375 42.765625 200.3046875 C40 199 40 199 37.484375 197.2578125 C34.46981763 195.32516682 32.58367207 194.39866727 29 194 C23.08449407 195.66291598 17.72246853 198.92562404 12.33642578 201.8125 C2.45474128 206.83491519 -10.84961877 211 -22 211 C-22 210.34 -22 209.68 -22 209 C-20.51586914 207.74926758 -20.51586914 207.74926758 -18.47265625 206.33203125 C-14.06363632 203.13032384 -10.25699166 199.56256956 -6.4375 195.6875 C-5.7870874 195.03322021 -5.1366748 194.37894043 -4.46655273 193.70483398 C0.07337774 189.08276379 4.29074784 184.32573559 8 179 C7.236875 178.13375 6.47375 177.2675 5.6875 176.375 C4.45252889 174.92157881 3.22445981 173.46228758 2 172 C1.1646875 171.00355469 0.329375 170.00710937 -0.53125 168.98046875 C-23.79203548 140.65938401 -31.78153908 106.62115362 -28.78173828 70.36181641 C-28.19493311 65.48071116 -27.17592154 60.77115707 -26 56 C-25.7824707 55.03368652 -25.7824707 55.03368652 -25.56054688 54.04785156 C-21.28662046 35.31473254 -12.01467827 15.05875595 0 0 Z " fill="#2282C3" transform="translate(102,42)"/>
<path d="M0 0 C4.91629142 4.84094596 9.5986744 9.88988568 14.296875 14.94140625 C22.37768395 23.89823775 22.37768395 23.89823775 32 31 C32 31.66 32 32.32 32 33 C13.79289265 30.9111709 -2.81102838 24.41683259 -19 16 C-17.66983741 12.00951224 -15.83404932 11.35141617 -12.3125 9.125 C-7.93972305 6.30015482 -3.88721993 3.4553066 0 0 Z " fill="#142552" transform="translate(151,220)"/>
<path d="M0 0 C0.99 0.495 0.99 0.495 2 1 C-0.75244825 19.19902351 -9.79284766 37.29372368 -22 51 C-22.65097656 51.804375 -23.30195313 52.60875 -23.97265625 53.4375 C-30.31611008 61.02593075 -37.89767612 66.45712254 -46 72 C-47.42699219 72.99193359 -47.42699219 72.99193359 -48.8828125 74.00390625 C-64.09478054 84.15278642 -85.45677109 94 -104 94 C-104 93.34 -104 92.68 -104 92 C-102.51367188 90.74707031 -102.51367188 90.74707031 -100.46875 89.328125 C-96.08468804 86.14427719 -92.29807898 82.60318116 -88.5 78.75 C-87.85071533 78.09757324 -87.20143066 77.44514648 -86.5324707 76.77294922 C-82.15752404 72.32297844 -78.15675581 67.7593687 -74.41796875 62.7578125 C-73 61 -73 61 -71 60 C-72.45450642 64.45391232 -74.90762365 67.63788299 -77.9375 71.125 C-78.41678955 71.68469482 -78.8960791 72.24438965 -79.38989258 72.82104492 C-84.31431125 78.49690408 -89.59502775 83.7832086 -95 89 C-87.59431284 87.87091741 -80.7900615 86.15763385 -73.8125 83.4375 C-72.90757813 83.08671387 -72.00265625 82.73592773 -71.0703125 82.37451172 C-41.72952636 70.66820018 -19.55293758 50.12713139 -7 21 C-4.21772967 14.13592508 -1.99485333 7.12575986 0 0 Z " fill="#6BD0E7" transform="translate(184,159)"/>
<path d="M0 0 C0.66 0 1.32 0 2 0 C1.7093844 1.91682632 1.41743136 3.83344986 1.125 5.75 C0.96257812 6.81734375 0.80015625 7.8846875 0.6328125 8.984375 C0.2907408 11.21752231 -0.0789424 13.44101088 -0.47705078 15.66503906 C-1.80456169 23.17892434 -2.57710163 30.64229635 -3.125 38.25 C-3.21136719 39.38824219 -3.29773438 40.52648437 -3.38671875 41.69921875 C-3.59595777 44.46582357 -3.80031721 47.23269192 -4 50 C-4.33 50 -4.66 50 -5 50 C-5.02935775 45.70834802 -5.04691802 41.41672236 -5.0625 37.125 C-5.07087891 35.92101562 -5.07925781 34.71703125 -5.08789062 33.4765625 C-5.10662365 26.58280854 -4.87608826 19.84079737 -4 13 C-8.4535714 19.20714737 -11.77727031 25.44769735 -14.6875 32.5 C-15.06455078 33.38558594 -15.44160156 34.27117187 -15.83007812 35.18359375 C-18.15534818 40.71067544 -20.19607222 46.28188932 -22 52 C-24.08691406 48.38525391 -24.08691406 48.38525391 -23.3046875 44.91796875 C-17.47115448 29.69659162 -10.41846583 12.6916213 0 0 Z " fill="#67CDE8" transform="translate(102,42)"/>
<path d="M0 0 C0.66 0.33 1.32 0.66 2 1 C-0.75244825 19.19902351 -9.79284766 37.29372368 -22 51 C-22.65097656 51.804375 -23.30195313 52.60875 -23.97265625 53.4375 C-30.81858821 61.62702608 -40.12702021 69.62306186 -50 74 C-48.78163007 70.34489022 -47.73731732 69.92550604 -44.5625 67.875 C-21.27496612 52.06206687 -6.38642617 27.15911763 0 0 Z " fill="#309CD6" transform="translate(184,159)"/>
<path d="M0 0 C0.33 0 0.66 0 1 0 C1.1421708 3.55427006 1.19451394 6.43598768 0.02734375 9.8203125 C-1.07197752 13.22277451 -1.36957611 16.18706512 -1.5625 19.75 C-1.90102828 25.80205656 -1.90102828 25.80205656 -3 28 C-3.08372659 29.52148326 -3.10730027 31.04655778 -3.09765625 32.5703125 C-3.09443359 33.46621094 -3.09121094 34.36210938 -3.08789062 35.28515625 C-3.07951172 36.22230469 -3.07113281 37.15945312 -3.0625 38.125 C-3.05798828 39.06988281 -3.05347656 40.01476562 -3.04882812 40.98828125 C-3.03702357 43.32558387 -3.02055759 45.66276061 -3 48 C-3.66 48 -4.32 48 -5 48 C-5.4111684 31.30234569 -4.76424384 16.09485854 0 0 Z " fill="#2999D9" transform="translate(78,91)"/>
<path d="M0 0 C0.33 0.66 0.66 1.32 1 2 C-6.2833971 11.69558328 -14.33759911 20.5245574 -23 29 C-23.66 29.66 -24.32 30.32 -25 31 C-25.99 31 -26.98 31 -28 31 C-23.92228229 26.11822528 -19.60126441 21.57266172 -15.0625 17.125 C-9.92079094 12.07325679 -5.38331367 6.72833046 -1 1 C-0.67 0.67 -0.34 0.34 0 0 Z " fill="#6BD4EB" transform="translate(112,219)"/>
<path d="M0 0 C1.20616485 3.61849454 0.82545311 6.57918614 0.44140625 10.29296875 C0.37340317 10.99899734 0.30540009 11.70502594 0.2353363 12.43244934 C0.0170168 14.68476203 -0.21012559 16.93608518 -0.4375 19.1875 C-0.58717092 20.71543786 -0.73626639 22.2434322 -0.88476562 23.77148438 C-1.24983911 27.51501081 -1.62282716 31.25767404 -2 35 C-2.33 35 -2.66 35 -3 35 C-3.02913072 30.62501407 -3.04684286 26.25005326 -3.0625 21.875 C-3.07087891 20.6375 -3.07925781 19.4 -3.08789062 18.125 C-3.09111328 16.92617187 -3.09433594 15.72734375 -3.09765625 14.4921875 C-3.10289307 13.39245605 -3.10812988 12.29272461 -3.11352539 11.15966797 C-3.0008558 8.02381895 -2.58626376 5.07940617 -2 2 C-1.34 2 -0.68 2 0 2 C0 1.34 0 0.68 0 0 Z " fill="#4AB2E1" transform="translate(100,57)"/>
<path d="M0 0 C0.33 0 0.66 0 1 0 C0.41631082 6.05885808 -1.38738261 11.27358046 -3.5625 16.9375 C-3.89185547 17.81212891 -4.22121094 18.68675781 -4.56054688 19.58789062 C-5.36737838 21.72774809 -6.18063181 23.86491864 -7 26 C-8.06323242 24.22998047 -8.06323242 24.22998047 -9 22 C-8.23637038 19.22262896 -7.4014749 16.76861391 -6.3125 14.125 C-6.04244141 13.43019531 -5.77238281 12.73539063 -5.49414062 12.01953125 C-3.86849347 7.89915588 -2.04146321 3.93490493 0 0 Z " fill="#56C0E6" transform="translate(87,68)"/>
<path d="M0 0 C0.66 0.33 1.32 0.66 2 1 C0.77078205 9.12751571 -1.8850717 16.41479291 -5 24 C-5.66 23.01 -6.32 22.02 -7 21 C-6.171875 17.890625 -6.171875 17.890625 -4.75 14.25 C-2.92998616 9.52614384 -1.32609598 4.87903236 0 0 Z " fill="#1476BF" transform="translate(184,159)"/>
<path d="M0 0 C0.33 0 0.66 0 1 0 C1.13962054 3.4905134 1.22099428 6.36648307 0.0625 9.6875 C-1.54127084 14.68749143 -1.67904563 19.78026838 -2 25 C-4 23 -4 23 -4.08203125 20.56640625 C-3.44205099 13.43387261 -2.13922835 6.83476732 0 0 Z " fill="#3FA9DB" transform="translate(78,91)"/>
<path d="M0 0 C0.99 0 1.98 0 3 0 C2.71766639 2.75125089 2.42452667 5.50061337 2.125 8.25 C2.04636719 9.02730469 1.96773437 9.80460938 1.88671875 10.60546875 C1.09573623 17.72431144 1.09573623 17.72431144 -1 21 C-1.33 20.67 -1.66 20.34 -2 20 C-1.93439053 18.32994067 -1.79587725 16.66258947 -1.625 15 C-1.52574219 14.01386719 -1.42648438 13.02773437 -1.32421875 12.01171875 C-1.21722656 11.01785156 -1.11023438 10.02398437 -1 9 C-0.90332031 8.09894531 -0.80664062 7.19789063 -0.70703125 6.26953125 C-0.47770225 4.17898137 -0.23976477 2.08937872 0 0 Z " fill="#1D67B2" transform="translate(187,138)"/>
<path d="M0 0 C1.16332054 3.46473414 1.02949728 3.93199237 -0.546875 7.56640625 C-1.26871983 8.90526918 -2.00361742 10.23715969 -2.75 11.5625 C-3.1109375 12.23474609 -3.471875 12.90699219 -3.84375 13.59960938 C-5.62557156 16.85014255 -7.27727072 19.44562194 -10 22 C-10 18.13827491 -9.87543078 17.28660161 -8.06640625 14.1796875 C-7.66486328 13.47972656 -7.26332031 12.77976563 -6.84960938 12.05859375 C-6.42486328 11.33800781 -6.00011719 10.61742187 -5.5625 9.875 C-4.7303409 8.43496971 -3.89830396 6.99486881 -3.06640625 5.5546875 C-2.69459229 4.92030762 -2.32277832 4.28592773 -1.93969727 3.63232422 C-1.25488896 2.44276113 -0.61384408 1.22768815 0 0 Z " fill="#2490D5" transform="translate(177,181)"/>
<path d="M0 0 C1.875 0.6875 1.875 0.6875 4 2 C4.66666667 3.66666667 5.33333333 5.33333333 6 7 C7.86644906 8.18330183 7.86644906 8.18330183 10 9 C12.25 10.4375 12.25 10.4375 14 12 C14 12.99 14 13.98 14 15 C9.95190965 13.41102996 7.62436647 10.69374052 4.75 7.5 C4.29109375 7.00113281 3.8321875 6.50226563 3.359375 5.98828125 C0 2.25897507 0 2.25897507 0 0 Z " fill="#1C60AF" transform="translate(98,205)"/>
<path d="M0 0 C2.94150061 2.66312516 4.9928031 5.77245346 7.1875 9.0625 C7.90292969 10.12597656 8.61835937 11.18945312 9.35546875 12.28515625 C11 15 11 15 11 17 C10.01 16.67 9.02 16.34 8 16 C8 15.01 8 14.02 8 13 C7.34 13 6.68 13 6 13 C6 12.01 6 11.02 6 10 C5.34 10 4.68 10 4 10 C4 9.01 4 8.02 4 7 C3.34 7 2.68 7 2 7 C1.01 5.02 0.02 3.04 -1 1 C-0.67 0.67 -0.34 0.34 0 0 Z " fill="#1579C1" transform="translate(115,145)"/>
<path d="M0 0 C0.33 0 0.66 0 1 0 C1.33 6.93 1.66 13.86 2 21 C1.34 21.33 0.68 21.66 0 22 C-1.14364008 14.50280391 -0.75667376 7.53181418 0 0 Z " fill="#2F9DD6" transform="translate(98,79)"/>
<path d="M0 0 C0.66 0.33 1.32 0.66 2 1 C1.195625 1.61875 0.39125 2.2375 -0.4375 2.875 C-3.03874519 4.74164041 -3.03874519 4.74164041 -4 7 C-3.401875 7.103125 -2.80375 7.20625 -2.1875 7.3125 C0.28243264 8.08876455 1.32251235 9.07088921 3 11 C-0.48670834 9.8905928 -3.77484237 8.73662334 -7 7 C-5.66667905 3.00003714 -3.5042173 2.16217663 0 0 Z " fill="#1D3773" transform="translate(139,229)"/>
<path d="M0 0 C0.33 0.66 0.66 1.32 1 2 C-0.11733729 3.50571657 -1.24410035 5.00444292 -2.375 6.5 C-3.00148438 7.3353125 -3.62796875 8.170625 -4.2734375 9.03125 C-4.84320313 9.6809375 -5.41296875 10.330625 -6 11 C-6.66 11 -7.32 11 -8 11 C-6.63629701 8.00779732 -5.05091917 5.70973471 -2.875 3.25 C-2.33617188 2.63640625 -1.79734375 2.0228125 -1.2421875 1.390625 C-0.62730469 0.70226562 -0.62730469 0.70226562 0 0 Z " fill="#3DA8DB" transform="translate(112,219)"/>
<path d="M0 0 C3.2645028 3.2645028 3.93236055 7.41047299 4.125 11.9375 C4.08375 12.618125 4.0425 13.29875 4 14 C3.34 14 2.68 14 2 14 C1.47216999 11.85587698 0.95290681 9.70964319 0.4375 7.5625 C0.00244141 5.77005859 0.00244141 5.77005859 -0.44140625 3.94140625 C-0.62574219 2.97074219 -0.81007813 2.00007813 -1 1 C-0.67 0.67 -0.34 0.34 0 0 Z " fill="#1C4EA0" transform="translate(128,115)"/>
<path d="M0 0 C3.32993034 3.82941989 5.05324525 8.37522222 7 13 C6.34 13.66 5.68 14.32 5 15 C3.02 10.38 1.04 5.76 -1 1 C-0.67 0.67 -0.34 0.34 0 0 Z " fill="#1C3772" transform="translate(120,97)"/>
<path d="M0 0 C0.66 0.33 1.32 0.66 2 1 C0.92807816 2.3218362 -0.15802695 3.63217927 -1.25 4.9375 C-1.85328125 5.66839844 -2.4565625 6.39929688 -3.078125 7.15234375 C-5.10741134 9.10326334 -6.254407 9.61731779 -9 10 C-8.06409496 8.8944811 -7.12620142 7.79064547 -6.1875 6.6875 C-5.66542969 6.07261719 -5.14335938 5.45773438 -4.60546875 4.82421875 C-3.12827531 3.14575321 -1.59960869 1.56117966 0 0 Z " fill="#57BCE3" transform="translate(103,230)"/>
<path d="M0 0 C0.66 0 1.32 0 2 0 C2.21755666 5.4389165 2.10428384 9.87080814 0 15 C-0.33 15 -0.66 15 -1 15 C-0.67 10.05 -0.34 5.1 0 0 Z " fill="#1574BE" transform="translate(132,155)"/>
<path d="M0 0 C0.33 0 0.66 0 1 0 C0.91231752 1.5843317 0.80412671 3.16753567 0.6875 4.75 C0.62949219 5.63171875 0.57148437 6.5134375 0.51171875 7.421875 C-0.0641181 10.32303774 -1.07596148 11.79225607 -3 14 C-3.6875 10.6875 -3.6875 10.6875 -4 7 C-2.625 5.3125 -2.625 5.3125 -1 4 C-0.28552357 1.89667109 -0.28552357 1.89667109 0 0 Z " fill="#60C4E2" transform="translate(102,45)"/>
<path d="M0 0 C0.66 0.33 1.32 0.66 2 1 C-6.20689655 8 -6.20689655 8 -11 8 C-10 5 -10 5 -7.78515625 3.578125 C-6.88667969 3.13984375 -5.98820312 2.7015625 -5.0625 2.25 C-4.16660156 1.80140625 -3.27070313 1.3528125 -2.34765625 0.890625 C-1.18556641 0.44976562 -1.18556641 0.44976562 0 0 Z " fill="#58BCE2" transform="translate(132,232)"/>
<path d="M0 0 C0 0.66 0 1.32 0 2 C-1.4317616 2.69937202 -2.87067032 3.38412718 -4.3125 4.0625 C-5.51326172 4.63677734 -5.51326172 4.63677734 -6.73828125 5.22265625 C-9 6 -9 6 -12 5 C-11.34 5 -10.68 5 -10 5 C-10 4.34 -10 3.68 -10 3 C-3.375 0 -3.375 0 0 0 Z " fill="#65CBE6" transform="translate(121,239)"/>
<path d="M0 0 C2.86453858 3.41016497 4.34703566 6.90694544 6 11 C5.01 11 4.02 11 3 11 C0.84694043 7.14243493 -0.39253254 4.44870215 0 0 Z " fill="#157CC5" transform="translate(84,179)"/>
<path d="M0 0 C0.33 0 0.66 0 1 0 C0.40546697 9.59453303 0.40546697 9.59453303 -3 13 C-4.23593891 9.29218328 -3.5678132 8.32489747 -2.0625 4.8125 C-1.68222656 3.91144531 -1.30195313 3.01039063 -0.91015625 2.08203125 C-0.60980469 1.39496094 -0.30945313 0.70789063 0 0 Z " fill="#1884CA" transform="translate(181,170)"/>
<path d="M0 0 C0.66 0.99 1.32 1.98 2 3 C1.5390625 5.26171875 1.5390625 5.26171875 0.625 7.6875 C0.18027344 8.89986328 0.18027344 8.89986328 -0.2734375 10.13671875 C-0.51320313 10.75160156 -0.75296875 11.36648437 -1 12 C-2.44810616 9.68719735 -3.12565635 8.58355661 -2.5390625 5.859375 C-2.23742187 5.16328125 -1.93578125 4.4671875 -1.625 3.75 C-1.32851562 3.04359375 -1.03203125 2.3371875 -0.7265625 1.609375 C-0.48679687 1.07828125 -0.24703125 0.5471875 0 0 Z " fill="#52B2E1" transform="translate(81,82)"/>
<path d="M0 0 C0.33 0 0.66 0 1 0 C1.33 3.63 1.66 7.26 2 11 C1.34 10.67 0.68 10.34 0 10 C-0.44921875 7.96875 -0.44921875 7.96875 -0.6875 5.5 C-0.77386719 4.6853125 -0.86023438 3.870625 -0.94921875 3.03125 C-0.96597656 2.3609375 -0.98273438 1.690625 -1 1 C-0.67 0.67 -0.34 0.34 0 0 Z " fill="#259CD8" transform="translate(100,100)"/>
</svg>
